<?xml version="1.0" encoding="utf-8"?>
<!-- Generator: Adobe Illustrator 17.0.2, SVG Export Plug-In . SVG Version: 6.00 Build 0)  -->
<!DOCTYPE svg PUBLIC "-//W3C//DTD SVG 1.1//EN" "http://www.w3.org/Graphics/SVG/1.1/DTD/svg11.dtd">
<svg version="1.1" id="Layer_1" xmlns="http://www.w3.org/2000/svg" xmlns:xlink="http://www.w3.org/1999/xlink" x="0px" y="0px"
	 width="29.5px" height="29.5px" viewBox="0 0 29.5 29.5" enable-background="new 0 0 29.5 29.5" xml:space="preserve">
<g>
	<g>
		<path fill="#FFFFFF" d="M14.75,28.5C7.168,28.5,1,22.332,1,14.75C1,7.168,7.168,1,14.75,1C22.332,1,28.5,7.168,28.5,14.75
			C28.5,22.332,22.332,28.5,14.75,28.5z"/>
		<path fill="#323232" d="M14.75,2C21.78,2,27.5,7.72,27.5,14.75S21.78,27.5,14.75,27.5C7.72,27.5,2,21.78,2,14.75S7.72,2,14.75,2
			 M14.75,0C6.604,0,0,6.604,0,14.75S6.604,29.5,14.75,29.5c8.146,0,14.75-6.604,14.75-14.75S22.896,0,14.75,0L14.75,0z"/>
	</g>
</g>
<polyline fill="none" stroke="#353535" stroke-width="2" stroke-linecap="round" stroke-linejoin="round" stroke-miterlimit="10" points="
	9,16 13,19 19,9 "/>
</svg>
